# xmcd
#
# Track frame offsets: 
#        150
#        21410
#        33362
#        56372
#        73440
#        91427
#        106252
#        122240
#        141272
#        159942
#        178917
#        191650
#
# Disc length: 3127 seconds
#
# Revision: 4
# Processed by: cddbd v1.5.2PL0 Copyright (c) Steve Scherf et al.
# Submitted via: ExactAudioCopy v1.0b3
#
DISCID=ad0c350c
DTITLE=James Blood Ulmer - Birthright
DYEAR=2005
DGENRE=Blues
TTITLE0=Take My Music Back To The Church
TTITLE1=I Can't Take It Anymore
TTITLE2=Where Did All The Girls Come From
TTITLE3=I Ain't Superstitious
TTITLE4=White Man's Jail
TTITLE5=High Yellow
TTITLE6=The Evil One
TTITLE7=Geechee Joe
TTITLE8=Love Dance Rag
TTITLE9=Sittin' On Top Of The World
TTITLE10=My Most Favorite Thing
TTITLE11=Devil's Got To Burn
EXTD=YEAR: 2005
EXTT0=
EXTT1=
EXTT2=
EXTT3=
EXTT4=
EXTT5=
EXTT6=
EXTT7=
EXTT8=
EXTT9=
EXTT10=
EXTT11=
PLAYORDER=
